<svg width="250" height="220" viewBox="0 0 250 220" fill="none" xmlns="http://www.w3.org/2000/svg">
<g clip-path="url(#clip0_1015_2)">
<path d="M188.127 40.7237L21.5612 108.98L21.6756 109.261L188.241 41.005L188.127 40.7237Z" fill="black"/>
<path d="M21.7191 109.001L21.4876 109.196L108.374 212.68L108.605 212.484L21.7191 109.001Z" fill="black"/>
<path d="M238.808 165.902L108.456 212.462L108.557 212.748L238.909 166.188L238.808 165.902Z" fill="black"/>
<path d="M188.332 40.8325L188.052 40.9469L238.73 166.144L239.01 166.03L188.332 40.8325Z" fill="black"/>
<path d="M188.017 40.8119L108.38 212.529L108.654 212.658L188.291 40.94L188.017 40.8119Z" fill="black"/>
<path d="M21.6088 109.443L21.5329 109.737L238.83 166.26L238.906 165.966L21.6088 109.443Z" fill="black"/>
<path opacity="0.1" d="M188.193 40.9031L21.6032 109.102L108.485 212.587L238.864 166.104L188.193 40.9031Z" fill="url(#paint0_linear_1015_2)"/>
<path d="M108.485 219.997C112.562 219.997 115.868 216.68 115.868 212.587C115.868 208.495 112.562 205.178 108.485 205.178C104.408 205.178 101.102 208.495 101.102 212.587C101.102 216.68 104.408 219.997 108.485 219.997Z" fill="black"/>
<path d="M188.193 81.8062C210.701 81.8062 228.948 63.4933 228.948 40.9031C228.948 18.3129 210.701 0 188.193 0C165.685 0 147.439 18.3129 147.439 40.9031C147.439 63.4933 165.685 81.8062 188.193 81.8062Z" fill="black"/>
<path d="M250 154.93H227.731V177.28H250V154.93Z" fill="black"/>
<path d="M43.2064 87.4204H0V130.784H43.2064V87.4204Z" fill="black"/>
</g>
<defs>
<linearGradient id="paint0_linear_1015_2" x1="140.507" y1="101.316" x2="99.3309" y2="245.71" gradientUnits="userSpaceOnUse">
<stop stop-color="white" stop-opacity="0"/>
<stop offset="1" stop-color="#0039D2"/>
</linearGradient>
<clipPath id="clip0_1015_2">
<rect width="250" height="220" fill="white"/>
</clipPath>
</defs>
</svg>
