<svg width="426" height="248" viewBox="0 0 426 248" fill="none" xmlns="http://www.w3.org/2000/svg">
<g filter="url(#filter0_f_1083_68)">
<path d="M103 191C103 193.761 100.761 196 98 196L11 196C8.23858 196 6 193.761 6 191L6.00001 60C6.00001 57.2386 8.23859 55 11 55L98 55C100.761 55 103 57.2386 103 60L103 191Z" fill="url(#paint0_linear_1083_68)"/>
<path d="M104.5 191C104.5 194.59 101.59 197.5 98 197.5L11 197.5C7.41015 197.5 4.5 194.59 4.5 191L7.5 191C7.5 192.933 9.067 194.5 11 194.5L98 194.5C99.933 194.5 101.5 192.933 101.5 191L104.5 191ZM6.00001 55L103 55L6.00001 55ZM98 55C101.59 55 104.5 57.9102 104.5 61.5L104.5 191C104.5 194.59 101.59 197.5 98 197.5L98 194.5C99.933 194.5 101.5 192.933 101.5 191L101.5 60C101.5 57.2386 99.933 55 98 55ZM11 197.5C7.41015 197.5 4.5 194.59 4.5 191L4.50001 61.5C4.50001 57.9102 7.41016 55 11 55C9.06702 55 7.50001 57.2386 7.50001 60L7.5 191C7.5 192.933 9.067 194.5 11 194.5L11 197.5Z" fill="url(#paint1_linear_1083_68)"/>
</g>
<g filter="url(#filter1_f_1083_68)">
<circle cx="162" cy="80" r="70" stroke="url(#paint2_linear_1083_68)" stroke-width="3"/>
</g>
<g filter="url(#filter2_f_1083_68)">
<path d="M149.5 121C149.5 117.41 152.41 114.5 156 114.5H363C366.59 114.5 369.5 117.41 369.5 121H366.5C366.5 119.067 364.933 117.5 363 117.5H156C154.067 117.5 152.5 119.067 152.5 121H149.5ZM368 234H151H368ZM156 234C152.41 234 149.5 231.09 149.5 227.5V121C149.5 117.41 152.41 114.5 156 114.5V117.5C154.067 117.5 152.5 119.067 152.5 121V229C152.5 231.761 154.067 234 156 234ZM363 114.5C366.59 114.5 369.5 117.41 369.5 121V227.5C369.5 231.09 366.59 234 363 234C364.933 234 366.5 231.761 366.5 229V121C366.5 119.067 364.933 117.5 363 117.5V114.5Z" fill="url(#paint3_linear_1083_68)"/>
</g>
<g filter="url(#filter3_f_1083_68)">
<path d="M417 27C419.761 27 422 29.2386 422 32L422 239C422 241.761 419.761 244 417 244L303 244C300.239 244 298 241.761 298 239L298 32C298 29.2386 300.239 27 303 27L417 27Z" fill="url(#paint4_linear_1083_68)"/>
<path d="M417 25.5C420.59 25.5 423.5 28.4101 423.5 32L423.5 239C423.5 242.59 420.59 245.5 417 245.5L417 242.5C418.933 242.5 420.5 240.933 420.5 239L420.5 32C420.5 30.067 418.933 28.5 417 28.5L417 25.5ZM298 244L298 27L298 244ZM298 32C298 28.4101 300.91 25.5 304.5 25.5L417 25.5C420.59 25.5 423.5 28.4101 423.5 32L420.5 32C420.5 30.067 418.933 28.5 417 28.5L303 28.5C300.239 28.5 298 30.067 298 32ZM423.5 239C423.5 242.59 420.59 245.5 417 245.5L304.5 245.5C300.91 245.5 298 242.59 298 239C298 240.933 300.239 242.5 303 242.5L417 242.5C418.933 242.5 420.5 240.933 420.5 239L423.5 239Z" fill="url(#paint5_linear_1083_68)"/>
</g>
<defs>
<filter id="filter0_f_1083_68" x="0.5" y="51" width="108" height="150.5" filterUnits="userSpaceOnUse" color-interpolation-filters="sRGB">
<feFlood flood-opacity="0" result="BackgroundImageFix"/>
<feBlend mode="normal" in="SourceGraphic" in2="BackgroundImageFix" result="shape"/>
<feGaussianBlur stdDeviation="2" result="effect1_foregroundBlur_1083_68"/>
</filter>
<filter id="filter1_f_1083_68" x="82.5" y="0.5" width="159" height="159" filterUnits="userSpaceOnUse" color-interpolation-filters="sRGB">
<feFlood flood-opacity="0" result="BackgroundImageFix"/>
<feBlend mode="normal" in="SourceGraphic" in2="BackgroundImageFix" result="shape"/>
<feGaussianBlur stdDeviation="4" result="effect1_foregroundBlur_1083_68"/>
</filter>
<filter id="filter2_f_1083_68" x="147.5" y="112.5" width="224" height="123.5" filterUnits="userSpaceOnUse" color-interpolation-filters="sRGB">
<feFlood flood-opacity="0" result="BackgroundImageFix"/>
<feBlend mode="normal" in="SourceGraphic" in2="BackgroundImageFix" result="shape"/>
<feGaussianBlur stdDeviation="1" result="effect1_foregroundBlur_1083_68"/>
</filter>
<filter id="filter3_f_1083_68" x="296" y="23.5" width="129.5" height="224" filterUnits="userSpaceOnUse" color-interpolation-filters="sRGB">
<feFlood flood-opacity="0" result="BackgroundImageFix"/>
<feBlend mode="normal" in="SourceGraphic" in2="BackgroundImageFix" result="shape"/>
<feGaussianBlur stdDeviation="1" result="effect1_foregroundBlur_1083_68"/>
</filter>
<linearGradient id="paint0_linear_1083_68" x1="55.0215" y1="426" x2="55.0215" y2="83" gradientUnits="userSpaceOnUse">
<stop stop-color="#FFCC48" stop-opacity="0.5"/>
<stop offset="1" stop-color="white" stop-opacity="0"/>
</linearGradient>
<linearGradient id="paint1_linear_1083_68" x1="54.5" y1="196" x2="54.5" y2="55" gradientUnits="userSpaceOnUse">
<stop offset="0.0001" stop-color="#FFCC48"/>
<stop offset="1" stop-color="#FFC606" stop-opacity="0.0677151"/>
</linearGradient>
<linearGradient id="paint2_linear_1083_68" x1="162" y1="10" x2="162" y2="150" gradientUnits="userSpaceOnUse">
<stop stop-color="#09D3FF"/>
<stop offset="1" stop-color="#0AD3FF" stop-opacity="0"/>
</linearGradient>
<linearGradient id="paint3_linear_1083_68" x1="260" y1="94.2377" x2="260" y2="206.769" gradientUnits="userSpaceOnUse">
<stop stop-color="#FF81FF"/>
<stop offset="1" stop-color="#FF53FF" stop-opacity="0"/>
</linearGradient>
<linearGradient id="paint4_linear_1083_68" x1="624.269" y1="134.333" x2="322.624" y2="134.333" gradientUnits="userSpaceOnUse">
<stop stop-color="#00F762" stop-opacity="0.5"/>
<stop offset="1" stop-color="white" stop-opacity="0"/>
</linearGradient>
<linearGradient id="paint5_linear_1083_68" x1="484" y1="135.5" x2="319.284" y2="135.5" gradientUnits="userSpaceOnUse">
<stop stop-color="#00F762"/>
<stop offset="1" stop-color="#00FF65" stop-opacity="0"/>
</linearGradient>
</defs>
</svg>
