<svg width="20" height="16" viewBox="0 0 20 16" fill="none" xmlns="http://www.w3.org/2000/svg">
<path d="M1.1333 3.625L8.37286 8.62601C8.9591 9.03098 9.25222 9.23346 9.57106 9.31189C9.85269 9.38117 10.1472 9.38117 10.4289 9.31189C10.7477 9.23346 11.0408 9.03098 11.6271 8.62601L18.8666 3.625M5.3893 15H14.6106C16.1004 15 16.8452 15 17.4142 14.7139C17.9148 14.4622 18.3217 14.0607 18.5767 13.5667C18.8666 13.0052 18.8666 12.2701 18.8666 10.8V5.2C18.8666 3.72986 18.8666 2.99479 18.5767 2.43327C18.3217 1.93935 17.9148 1.53778 17.4142 1.28611C16.8452 1 16.1004 1 14.6106 1H5.3893C3.89956 1 3.15469 1 2.58569 1.28611C2.08517 1.53778 1.67825 1.93935 1.42322 2.43327C1.1333 2.99479 1.1333 3.72986 1.1333 5.2V10.8C1.1333 12.2701 1.1333 13.0052 1.42322 13.5667C1.67825 14.0607 2.08517 14.4622 2.58569 14.7139C3.15469 15 3.89956 15 5.3893 15Z" stroke="#60606C" stroke-width="1.86667" stroke-linecap="round" stroke-linejoin="round"/>
</svg>
