<svg width="269" height="265" viewBox="0 0 269 265" fill="none" xmlns="http://www.w3.org/2000/svg">
<path fill-rule="evenodd" clip-rule="evenodd" d="M134.611 0C60.1747 0 0 60.7289 0 135.859C0 195.914 38.556 246.75 92.0434 264.742C98.7307 266.095 101.18 261.819 101.18 258.222C101.18 255.072 100.96 244.277 100.96 233.028C63.5142 241.127 55.7165 216.833 55.7165 216.833C49.6988 201.087 40.7824 197.04 40.7824 197.04C28.5264 188.718 41.6751 188.718 41.6751 188.718C55.2701 189.618 62.4038 202.663 62.4038 202.663C74.4366 223.355 93.8262 217.509 101.627 213.909C102.74 205.137 106.308 199.064 110.097 195.691C80.2311 192.541 48.8088 180.845 48.8088 128.66C48.8088 113.814 54.1542 101.668 62.6243 92.2224C61.2879 88.8492 56.6065 74.9008 63.9634 56.2322C63.9634 56.2322 75.3293 52.6326 100.957 70.1778C111.929 67.2039 123.245 65.6911 134.611 65.6783C145.977 65.6783 157.564 67.2545 168.263 70.1778C193.893 52.6326 205.259 56.2322 205.259 56.2322C212.616 74.9008 207.932 88.8492 206.596 92.2224C215.289 101.668 220.414 113.814 220.414 128.66C220.414 180.845 188.991 192.315 158.903 195.691C163.807 199.964 168.04 208.06 168.04 220.882C168.04 239.101 167.819 253.723 167.819 258.219C167.819 261.819 170.271 266.095 176.956 264.745C230.443 246.747 268.999 195.914 268.999 135.859C269.22 60.7289 208.825 0 134.611 0Z" fill="#60606C"/>
</svg>
