<svg width="17" height="16" viewBox="0 0 17 16" fill="none" xmlns="http://www.w3.org/2000/svg">
<path d="M14.9489 0H1.31455C0.661426 0 0.133301 0.515625 0.133301 1.15313V14.8438C0.133301 15.4813 0.661426 16 1.31455 16H14.9489C15.6021 16 16.1333 15.4813 16.1333 14.8469V1.15313C16.1333 0.515625 15.6021 0 14.9489 0ZM4.88018 13.6344H2.50518V5.99687H4.88018V13.6344ZM3.69268 4.95625C2.93018 4.95625 2.31455 4.34062 2.31455 3.58125C2.31455 2.82188 2.93018 2.20625 3.69268 2.20625C4.45205 2.20625 5.06768 2.82188 5.06768 3.58125C5.06768 4.3375 4.45205 4.95625 3.69268 4.95625ZM13.7677 13.6344H11.3958V9.92188C11.3958 9.0375 11.3802 7.89687 10.1614 7.89687C8.92705 7.89687 8.73955 8.8625 8.73955 9.85938V13.6344H6.3708V5.99687H8.6458V7.04063H8.67705C8.99268 6.44063 9.76768 5.80625 10.9208 5.80625C13.3239 5.80625 13.7677 7.3875 13.7677 9.44375V13.6344V13.6344Z" fill="#60606C"/>
</svg>
