<svg width="59" height="58" viewBox="0 0 59 58" fill="none" xmlns="http://www.w3.org/2000/svg">
<path fill-rule="evenodd" clip-rule="evenodd" d="M29.5244 0C13.1982 0 0 13.2916 0 29.7351C0 42.8793 8.45652 54.0056 20.188 57.9436C21.6547 58.2396 22.192 57.3038 22.192 56.5165C22.192 55.8272 22.1436 53.4643 22.1436 51.0023C13.9306 52.7749 12.2204 47.4577 12.2204 47.4577C10.9005 44.0115 8.94483 43.1258 8.94483 43.1258C6.25673 41.3043 9.14064 41.3043 9.14064 41.3043C12.1224 41.5012 13.6871 44.3565 13.6871 44.3565C16.3262 48.8853 20.579 47.6057 22.2899 46.8179C22.534 44.8979 23.3166 43.5687 24.1476 42.8304C17.5972 42.1411 10.7053 39.5812 10.7053 28.1595C10.7053 24.9103 11.8777 22.252 13.7354 20.1845C13.4423 19.4462 12.4156 16.3934 14.0291 12.3074C14.0291 12.3074 16.522 11.5196 22.143 15.3597C24.5495 14.7088 27.0314 14.3777 29.5244 14.3749C32.0173 14.3749 34.5586 14.7199 36.9052 15.3597C42.5268 11.5196 45.0197 12.3074 45.0197 12.3074C46.6333 16.3934 45.6059 19.4462 45.3128 20.1845C47.2195 22.252 48.3435 24.9103 48.3435 28.1595C48.3435 39.5812 41.4517 42.0915 34.8523 42.8304C35.928 43.7657 36.8563 45.5377 36.8563 48.344C36.8563 52.3315 36.8079 55.5318 36.8079 56.5159C36.8079 57.3038 37.3458 58.2396 38.8119 57.9442C50.5433 54.005 58.9999 42.8793 58.9999 29.7351C59.0482 13.2916 45.8017 0 29.5244 0Z" fill="black"/>
</svg>
