<svg width="155" height="137" viewBox="0 0 155 137" fill="none" xmlns="http://www.w3.org/2000/svg">
<path d="M115.999 60.0488C112.652 66.161 109.8 70.6563 107.604 75.4648C93.9048 105.418 69.6394 123.208 39.6321 133.664C31.4157 136.518 22.0692 136.589 13.1995 136.892C4.34972 137.182 -2.82089 124.762 1.38069 116.879C2.20873 115.336 5.96458 113.78 7.463 114.405C25.4473 121.966 41.2981 115.664 55.826 106.291C73.3077 95.0264 88.6681 81.2327 97.1801 61.3027C99.5831 55.7088 100.969 51.4213 93.3749 48.8035C89.772 47.5557 86.9157 44.1198 83.3013 42.852C78.4144 41.1208 76.5607 37.4521 77.5956 33.4734C78.5941 29.569 81.2834 25.7533 84.0953 22.7455C87.8814 18.7226 92.018 14.3907 96.9389 12.2418C107.348 7.6434 118.288 4.14903 129.154 0.61767C137.403 -2.04171 139.417 4.83585 141.039 10.2094C145.888 26.2587 150.915 42.3393 154.001 58.7682C154.939 63.7374 151.001 71.0695 147.05 75.0813C142.325 79.8594 135.857 78.6416 130.655 73.2051C126.443 68.7948 121.561 65.0109 115.967 60.0403L115.999 60.0488Z" fill="#707070"/>
</svg>
