<svg width="400" height="570" viewBox="0 0 400 570" fill="none" xmlns="http://www.w3.org/2000/svg">
<circle cx="266" cy="122.211" r="84.2111" transform="rotate(90 266 122.211)" fill="black"/>
<circle cx="84.2108" cy="122.211" r="84.2111" transform="rotate(90 84.2108 122.211)" fill="black"/>
<circle cx="266" cy="304" r="84.2111" transform="rotate(90 266 304)" fill="black"/>
<circle cx="84.2108" cy="304" r="84.2111" transform="rotate(90 84.2108 304)" fill="black"/>
<circle cx="266" cy="485.789" r="84.2111" transform="rotate(90 266 485.789)" fill="black"/>
<circle cx="84.2108" cy="485.789" r="84.2111" transform="rotate(90 84.2108 485.789)" fill="black"/>
<path fill-rule="evenodd" clip-rule="evenodd" d="M353.653 21.3333C353.295 22.8305 353.105 24.3931 353.105 26C353.105 27.6069 353.295 29.1695 353.653 30.6667H360.115C359.965 29.203 359.883 27.6489 359.883 26C359.883 24.3511 359.965 22.797 360.115 21.3333H353.653ZM356.184 15.3333H361.213C361.996 12.4519 363.061 10.0522 364.227 8.07369C360.926 9.71189 358.141 12.2352 356.184 15.3333ZM373.105 6.64584C372.362 7.26741 371.399 8.21143 370.421 9.55618C369.395 10.9664 368.326 12.8549 367.483 15.3333H378.728C377.885 12.8549 376.816 10.9664 375.79 9.55618C374.812 8.21143 373.849 7.26741 373.105 6.64584ZM380.059 21.3333H366.152C365.98 22.764 365.883 24.3166 365.883 26C365.883 27.6834 365.98 29.236 366.152 30.6667H380.059C380.231 29.236 380.328 27.6834 380.328 26C380.328 24.3166 380.231 22.764 380.059 21.3333ZM386.096 30.6667C386.246 29.203 386.328 27.6489 386.328 26C386.328 24.3511 386.246 22.797 386.096 21.3333H392.558C392.916 22.8305 393.105 24.3931 393.105 26C393.105 27.6069 392.916 29.1695 392.558 30.6667H386.096ZM378.728 36.6667H367.483C368.326 39.1451 369.395 41.0336 370.421 42.4438C371.399 43.7886 372.362 44.7326 373.105 45.3542C373.849 44.7326 374.812 43.7886 375.79 42.4438C376.816 41.0336 377.885 39.1451 378.728 36.6667ZM364.227 43.9263C363.061 41.9478 361.996 39.5481 361.213 36.6667H356.184C358.141 39.7648 360.926 42.2881 364.227 43.9263ZM381.984 43.9263C383.15 41.9478 384.214 39.5481 384.998 36.6667H390.027C388.07 39.7648 385.285 42.2881 381.984 43.9263ZM390.027 15.3333H384.998C384.214 12.4519 383.15 10.0522 381.984 8.07369C385.285 9.71189 388.07 12.2352 390.027 15.3333ZM347.105 26C347.105 11.6406 358.746 0 373.105 0C387.465 0 399.105 11.6406 399.105 26C399.105 40.3594 387.465 52 373.105 52C358.746 52 347.105 40.3594 347.105 26Z" fill="black"/>
</svg>
